<svg preserveAspectRatio="none" width="100%" height="100%" overflow="visible" style="display: block;" viewBox="0 0 28 28" fill="none" xmlns="http://www.w3.org/2000/svg">
<g id="Frame">
<path id="Vector" d="M17.15 7.35C16.269 6.88807 15.2633 6.71977 14.2799 6.86966C13.2965 7.01955 12.3866 7.47979 11.6832 8.18322C10.9798 8.88665 10.5196 9.79646 10.3697 10.7799C10.2198 11.7633 10.3881 12.769 10.85 13.65L4.66667 19.8333L8.16667 23.3333L14.35 17.15C15.231 17.6119 16.2367 17.7802 17.2201 17.6303C18.2035 17.4804 19.1133 17.0202 19.8168 16.3168C20.5202 15.6134 20.9804 14.7035 21.1303 13.7201C21.2802 12.7367 21.1119 11.731 20.65 10.85L17.6167 13.8833L14.8167 13.1833L14.1167 10.3833L17.15 7.35Z" stroke="var(--stroke-0, #3F3F3F)" stroke-width="2.1" stroke-linecap="round" stroke-linejoin="round"/>
</g>
</svg>
